HIERARCHY
ROOT Hips
{
	OFFSET 0.000000 0.000000 0.000000
	CHANNELS 6 Xposition Yposition Zposition Zrotation Yrotation Xrotation 
	JOINT LowerBack
	{
		OFFSET 0.000000 0.000000 0.000000
		CHANNELS 3 Zrotation Yrotation Xrotation
		JOINT Spine
		{
			OFFSET 0.028270 2.035590 -0.193380
			CHANNELS 3 Zrotation Yrotation Xrotation
			JOINT Spine1
			{
				OFFSET 0.056720 2.048850 -0.042750
				CHANNELS 3 Zrotation Yrotation Xrotation
				JOINT Neck
				{
					OFFSET 0.000000 0.000000 0.000000
					CHANNELS 3 Zrotation Yrotation Xrotation
					JOINT Neck1
					{
						OFFSET -0.054170 1.746240 0.172020
						CHANNELS 3 Zrotation Yrotation Xrotation
						JOINT Head
						{
							OFFSET 0.104070 1.761360 -0.123970
							CHANNELS 3 Zrotation Yrotation Xrotation
							End Site
							{
								OFFSET 0.000000 0.000000 0.000000
							}
						}
					}
				}
				JOINT LeftShoulder
				{
					OFFSET 0.000000 0.000000 0.000000
					CHANNELS 3 Zrotation Yrotation Xrotation
					JOINT LeftArm
					{
						OFFSET 3.362410 1.200890 -0.311210
						CHANNELS 3 Zrotation Yrotation Xrotation
						JOINT LeftForeArm
						{
							OFFSET 4.983000 -0.000000 -0.000000
							CHANNELS 3 Zrotation Yrotation Xrotation
							JOINT LeftHand
							{
								OFFSET 3.483560 -0.000000 -0.000000
								CHANNELS 3 Zrotation Yrotation Xrotation
								JOINT LeftFingerBase
								{
									OFFSET 0.000000 0.000000 0.000000
									CHANNELS 3 Zrotation Yrotation Xrotation
									JOINT LeftHandIndex1
									{
										OFFSET 0.715260 -0.000000 -0.000000
										CHANNELS 3 Zrotation Yrotation Xrotation
										End Site
										{
											OFFSET 0.000000 0.000000 0.000000
										}
									}
								}
								JOINT LThumb
								{
									OFFSET 0.000000 0.000000 0.000000
									CHANNELS 3 Zrotation Yrotation Xrotation
									End Site
									{
										OFFSET 0.000000 0.000000 0.000000
									}
								}
							}
						}
					}
				}
				JOINT RightShoulder
				{
					OFFSET 0.000000 0.000000 0.000000
					CHANNELS 3 Zrotation Yrotation Xrotation
					JOINT RightArm
					{
						OFFSET -3.136600 1.374050 -0.404650
						CHANNELS 3 Zrotation Yrotation Xrotation
						JOINT RightForeArm
						{
							OFFSET -5.241900 -0.000000 -0.000000
							CHANNELS 3 Zrotation Yrotation Xrotation
							JOINT RightHand
							{
								OFFSET -3.444170 -0.000000 -0.000000
								CHANNELS 3 Zrotation Yrotation Xrotation
								JOINT RightFingerBase
								{
									OFFSET 0.000000 0.000000 0.000000
									CHANNELS 3 Zrotation Yrotation Xrotation
									JOINT RightHandIndex1
									{
										OFFSET -0.622530 -0.000000 -0.000000
										CHANNELS 3 Zrotation Yrotation Xrotation
										End Site
										{
											OFFSET 0.000000 0.000000 0.000000
										}
									}
								}
								JOINT RThumb
								{
									OFFSET 0.000000 0.000000 0.000000
									CHANNELS 3 Zrotation Yrotation Xrotation
									End Site
									{
										OFFSET 0.000000 0.000000 0.000000
									}
								}
							}
						}
					}
				}
			}
		}
	}
}
}
MOTION
Frames: 7
Frame Time: 0.008333
-12.061562 15.895907 -2.676560 -47.740663 83.518713 -17.686689 -1.406802 0.063128 9.220209 -1.271074 0.356004 -1.574470 -6.474621 0.341871 -1.725380 9.751424 -4.612597 -6.951354 -2.394685 -0.161755 -0.253036 0.000000 0.000000 0.000000 -1.209989 10.980171 3.370853 -67.631644 23.196229 11.183384 -1.029483 -70.779296 0.000231 -1.523281 5.216935 -0.067440 -0.019871 0.049860 0.000000 0.000000 0.000000 0.000000 0.000000 0.000000 0.000000 8.586959 2.022968 -0.020829 69.356272 6.072610 13.219056 179.830649 87.597218 179.993129 -1.186726 2.638114 -0.031206 0.009005 -0.419192 0.000000 0.000000 0.000000 0.000000 0.000000 0.000000 0.000000 
-11.919228 15.877968 -2.696237 -47.594997 83.624619 -17.814408 -1.481758 0.047643 9.355700 -1.289918 0.340840 -1.552005 -6.501476 0.326709 -1.750940 9.708689 -4.531265 -6.921632 -2.447105 -0.165684 -0.247310 0.000000 0.000000 0.000000 -1.429741 10.800501 3.367652 -67.407849 22.175542 11.000145 -1.049027 -70.505803 -0.000236 -1.325539 5.277654 -0.059010 -0.024148 0.052480 0.000000 0.000000 0.000000 0.000000 0.000000 0.000000 0.000000 8.798203 2.058629 0.012026 69.607689 5.562211 12.887125 179.864914 88.411262 179.992834 -1.232563 2.682961 -0.032914 0.008057 -0.415044 0.000000 0.000000 0.000000 0.000000 0.000000 0.000000 0.000000 
-11.778669 15.862762 -2.715467 -47.570277 83.732507 -18.050771 -1.533911 0.034846 9.485839 -1.302761 0.327905 -1.525929 -6.522710 0.313969 -1.758257 9.647701 -4.449849 -6.878939 -2.500776 -0.169853 -0.237860 0.000000 0.000000 0.000000 -1.644356 10.645786 3.356119 -67.201906 21.045835 10.795408 -1.070447 -70.184848 -0.000824 -1.092614 5.359334 -0.048878 -0.029049 0.055260 0.000000 0.000000 0.000000 0.000000 0.000000 0.000000 0.000000 9.008818 2.076650 0.039875 69.870247 5.085487 12.537829 179.902975 89.358505 179.992486 -1.291875 2.727852 -0.034920 0.007534 -0.409954 0.000000 0.000000 0.000000 0.000000 0.000000 0.000000 0.000000 
-11.639697 15.850334 -2.734069 -47.632522 83.836545 -18.356884 -1.567470 0.024660 9.602732 -1.310711 0.317101 -1.499476 -6.539426 0.303366 -1.752880 9.571482 -4.360628 -6.818276 -2.555557 -0.174340 -0.223002 0.000000 0.000000 0.000000 -1.858195 10.495044 3.335496 -67.018946 19.854576 10.540038 -1.091812 -69.848389 -0.001547 -0.820991 5.466287 -0.036745 -0.034460 0.058110 0.000000 0.000000 0.000000 0.000000 0.000000 0.000000 0.000000 9.219093 2.085281 0.065332 70.144236 4.633682 12.170034 -0.055543 89.559826 -0.007855 -1.356676 2.769715 -0.037128 0.007321 -0.403891 0.000000 0.000000 0.000000 0.000000 0.000000 0.000000 0.000000 
-11.502315 15.840618 -2.751947 -47.780147 83.932396 -18.727084 -1.584757 0.016400 9.702500 -1.314068 0.307805 -1.472695 -6.550643 0.294356 -1.732441 9.483216 -4.271814 -6.743825 -2.609711 -0.178957 -0.203851 0.000000 0.000000 0.000000 -2.059146 10.353772 3.305141 -66.872034 18.606723 10.231419 -1.112533 -69.500052 -0.002419 -0.509619 5.600444 -0.022210 -0.040329 0.061061 0.000000 0.000000 0.000000 0.000000 0.000000 0.000000 0.000000 9.425524 2.076619 0.089088 70.429026 4.219272 11.794960 -0.010643 88.337077 -0.008177 -1.426781 2.807264 -0.039437 0.007505 -0.396842 0.000000 0.000000 0.000000 0.000000 0.000000 0.000000 0.000000 
-11.366521 15.833583 -2.768917 -47.996723 84.018360 -19.141154 -1.590259 0.009117 9.781318 -1.313817 0.299100 -1.447163 -6.556482 0.285952 -1.700259 9.386796 -4.181845 -6.655511 -2.662434 -0.183650 -0.180309 0.000000 0.000000 0.000000 -2.241096 10.210388 3.265242 -66.768202 17.329827 9.858920 -1.131147 -69.159770 -0.003452 -0.157879 5.761029 -0.004976 -0.046543 0.064134 0.000000 0.000000 0.000000 0.000000 0.000000 0.000000 0.000000 9.626844 2.053542 0.113287 70.723344 3.840072 11.415594 0.037500 86.975583 -0.008487 -1.504618 2.836768 -0.041946 0.008157 -0.388839 0.000000 0.000000 0.000000 0.000000 0.000000 0.000000 0.000000 
-11.232449 15.829211 -2.784820 -48.283792 84.093980 -19.598344 -1.586402 0.001524 9.839098 -1.310369 0.289779 -1.422432 -6.556394 0.277034 -1.655452 9.285965 -4.099468 -6.558660 -2.712237 -0.188232 -0.153939 0.000000 0.000000 0.000000 -2.392611 10.067949 3.215838 -66.713625 16.027616 9.430528 -1.146951 -68.834836 -0.004651 0.231411 5.945712 0.015158 -0.053017 0.067400 0.000000 0.000000 0.000000 0.000000 0.000000 0.000000 0.000000 9.820266 2.008617 0.139092 71.025863 3.506075 11.040865 0.088882 85.476260 -0.008807 -1.595352 2.856067 -0.044655 0.009413 -0.379941 0.000000 0.000000 0.000000 0.000000 0.000000 0.000000 0.000000 
